<svg width="152" height="20" viewBox="0 0 152 20" fill="none" xmlns="http://www.w3.org/2000/svg">
<path d="M1.69877 15V5.396H3.51877V15H1.69877ZM5.49594 15V7.636H6.92394L7.06394 8.616H7.16194C7.32994 8.392 7.52594 8.196 7.74994 8.028C7.98327 7.85067 8.2446 7.71533 8.53394 7.622C8.8326 7.51933 9.15927 7.468 9.51394 7.468C9.9806 7.468 10.3913 7.552 10.7459 7.72C11.1099 7.888 11.3946 8.15867 11.5999 8.532C11.8053 8.90533 11.9079 9.40467 11.9079 10.03V15H10.1859V10.338C10.1859 10.0767 10.1533 9.862 10.0879 9.694C10.0319 9.51667 9.94327 9.37667 9.82194 9.274C9.70994 9.162 9.56994 9.08267 9.40194 9.036C9.23394 8.98933 9.04727 8.966 8.84194 8.966C8.53394 8.966 8.25394 9.04067 8.00194 9.19C7.75927 9.33933 7.56327 9.54467 7.41394 9.806C7.27394 10.0673 7.20394 10.3707 7.20394 10.716V15H5.49594ZM15.6177 15.168C15.1604 15.168 14.8011 15.0793 14.5397 14.902C14.2784 14.7153 14.0917 14.482 13.9797 14.202C13.8771 13.9127 13.8257 13.6187 13.8257 13.32V9.036H12.9437V7.636H13.8677L14.1757 5.578H15.5337V7.636H16.8077V9.036H15.5337V13.152C15.5337 13.348 15.5851 13.502 15.6877 13.614C15.7904 13.7167 15.9444 13.768 16.1497 13.768H16.8077V14.944C16.7144 14.9813 16.5977 15.014 16.4577 15.042C16.3271 15.0793 16.1871 15.1073 16.0377 15.126C15.8884 15.154 15.7484 15.168 15.6177 15.168ZM21.2381 15.168C20.4541 15.168 19.8007 15.0327 19.2781 14.762C18.7554 14.482 18.3634 14.0573 18.1021 13.488C17.8407 12.9187 17.7101 12.1953 17.7101 11.318C17.7101 10.4313 17.8407 9.708 18.1021 9.148C18.3634 8.57867 18.7554 8.15867 19.2781 7.888C19.8007 7.608 20.4541 7.468 21.2381 7.468C21.9474 7.468 22.5401 7.60333 23.0161 7.874C23.5014 8.13533 23.8654 8.54133 24.1081 9.092C24.3507 9.64267 24.4721 10.3567 24.4721 11.234V11.738H19.4601C19.4787 12.1953 19.5487 12.5827 19.6701 12.9C19.7914 13.208 19.9781 13.4413 20.2301 13.6C20.4914 13.7493 20.8321 13.824 21.2521 13.824C21.4667 13.824 21.6674 13.796 21.8541 13.74C22.0407 13.684 22.2041 13.6 22.3441 13.488C22.4841 13.3667 22.5914 13.2173 22.6661 13.04C22.7501 12.8627 22.7921 12.6573 22.7921 12.424H24.4721C24.4721 12.8907 24.3881 13.2967 24.2201 13.642C24.0614 13.9873 23.8327 14.272 23.5341 14.496C23.2447 14.72 22.9041 14.888 22.5121 15C22.1201 15.112 21.6954 15.168 21.2381 15.168ZM19.4881 10.534H22.6941C22.6941 10.226 22.6567 9.96467 22.5821 9.75C22.5167 9.53533 22.4187 9.358 22.2881 9.218C22.1667 9.078 22.0174 8.98 21.8401 8.924C21.6627 8.85867 21.4621 8.826 21.2381 8.826C20.8741 8.826 20.5661 8.88667 20.3141 9.008C20.0714 9.12933 19.8847 9.316 19.7541 9.568C19.6234 9.82 19.5347 10.142 19.4881 10.534ZM25.9217 15V4.878H27.6297V15H25.9217ZM29.4491 6.502V4.878H31.1571V6.502H29.4491ZM29.4491 15V7.636H31.1571V15H29.4491ZM34.1944 17.548C33.8677 17.548 33.5597 17.4827 33.2704 17.352C32.9811 17.2213 32.7477 17.0253 32.5704 16.764C32.3931 16.512 32.3044 16.1993 32.3044 15.826C32.3044 15.4153 32.4211 15.0933 32.6544 14.86C32.8971 14.6173 33.1631 14.4353 33.4524 14.314C33.2377 14.202 33.0604 14.0527 32.9204 13.866C32.7897 13.6793 32.7244 13.4553 32.7244 13.194C32.7244 12.8393 32.8551 12.5593 33.1164 12.354C33.3777 12.1393 33.6764 11.9993 34.0124 11.934C33.6671 11.7193 33.4011 11.444 33.2144 11.108C33.0371 10.772 32.9484 10.3893 32.9484 9.96C32.9484 9.44667 33.0697 9.008 33.3124 8.644C33.5644 8.27067 33.9284 7.98133 34.4044 7.776C34.8804 7.57067 35.4544 7.468 36.1264 7.468C36.3971 7.468 36.6584 7.48667 36.9104 7.524C37.1624 7.56133 37.3911 7.61733 37.5964 7.692C37.9231 7.496 38.1471 7.27667 38.2684 7.034C38.3897 6.782 38.4551 6.57667 38.4644 6.418H40.1304C40.1304 6.74467 40.0651 7.034 39.9344 7.286C39.8131 7.538 39.6404 7.748 39.4164 7.916C39.1924 8.07467 38.9217 8.19133 38.6044 8.266C38.8377 8.47133 39.0151 8.71867 39.1364 9.008C39.2577 9.29733 39.3184 9.61467 39.3184 9.96C39.3184 10.4733 39.1971 10.9167 38.9544 11.29C38.7211 11.6633 38.3711 11.9527 37.9044 12.158C37.4471 12.3633 36.8824 12.466 36.2104 12.466H35.0764C34.8804 12.466 34.7264 12.508 34.6144 12.592C34.5117 12.676 34.4604 12.7927 34.4604 12.942C34.4604 13.0633 34.5071 13.1707 34.6004 13.264C34.7031 13.3573 34.8431 13.404 35.0204 13.404H38.2404C38.7911 13.404 39.2437 13.586 39.5984 13.95C39.9624 14.3047 40.1444 14.762 40.1444 15.322C40.1444 15.742 40.0324 16.12 39.8084 16.456C39.5937 16.792 39.2904 17.058 38.8984 17.254C38.5064 17.45 38.0491 17.548 37.5264 17.548H34.1944ZM34.8104 16.316H37.5124C37.6897 16.316 37.8437 16.2833 37.9744 16.218C38.1144 16.162 38.2217 16.078 38.2964 15.966C38.3804 15.854 38.4224 15.728 38.4224 15.588C38.4224 15.3453 38.3431 15.1633 38.1844 15.042C38.0351 14.9207 37.8484 14.86 37.6244 14.86H34.8104C34.5864 14.86 34.3997 14.9253 34.2504 15.056C34.1011 15.196 34.0264 15.3733 34.0264 15.588C34.0264 15.8027 34.0964 15.9753 34.2364 16.106C34.3857 16.246 34.5771 16.316 34.8104 16.316ZM36.1404 11.262C36.6351 11.262 37.0037 11.15 37.2464 10.926C37.4984 10.6927 37.6244 10.3707 37.6244 9.96C37.6244 9.54933 37.4984 9.232 37.2464 9.008C37.0037 8.784 36.6351 8.672 36.1404 8.672C35.6457 8.672 35.2724 8.784 35.0204 9.008C34.7777 9.232 34.6564 9.54933 34.6564 9.96C34.6564 10.2307 34.7077 10.464 34.8104 10.66C34.9224 10.856 35.0857 11.0053 35.3004 11.108C35.5244 11.2107 35.8044 11.262 36.1404 11.262ZM44.4119 15.168C43.6279 15.168 42.9746 15.0327 42.4519 14.762C41.9292 14.482 41.5372 14.0573 41.2759 13.488C41.0146 12.9187 40.8839 12.1953 40.8839 11.318C40.8839 10.4313 41.0146 9.708 41.2759 9.148C41.5372 8.57867 41.9292 8.15867 42.4519 7.888C42.9746 7.608 43.6279 7.468 44.4119 7.468C45.1212 7.468 45.7139 7.60333 46.1899 7.874C46.6752 8.13533 47.0392 8.54133 47.2819 9.092C47.5246 9.64267 47.6459 10.3567 47.6459 11.234V11.738H42.6339C42.6526 12.1953 42.7226 12.5827 42.8439 12.9C42.9652 13.208 43.1519 13.4413 43.4039 13.6C43.6652 13.7493 44.0059 13.824 44.4259 13.824C44.6406 13.824 44.8412 13.796 45.0279 13.74C45.2146 13.684 45.3779 13.6 45.5179 13.488C45.6579 13.3667 45.7652 13.2173 45.8399 13.04C45.9239 12.8627 45.9659 12.6573 45.9659 12.424H47.6459C47.6459 12.8907 47.5619 13.2967 47.3939 13.642C47.2352 13.9873 47.0066 14.272 46.7079 14.496C46.4186 14.72 46.0779 14.888 45.6859 15C45.2939 15.112 44.8692 15.168 44.4119 15.168ZM42.6619 10.534H45.8679C45.8679 10.226 45.8306 9.96467 45.7559 9.75C45.6906 9.53533 45.5926 9.358 45.4619 9.218C45.3406 9.078 45.1912 8.98 45.0139 8.924C44.8366 8.85867 44.6359 8.826 44.4119 8.826C44.0479 8.826 43.7399 8.88667 43.4879 9.008C43.2452 9.12933 43.0586 9.316 42.9279 9.568C42.7972 9.82 42.7086 10.142 42.6619 10.534ZM42.1159 6.726L43.5999 4.878H45.1959L46.6659 6.726H45.1819L44.0059 5.256L44.7899 5.27L43.5999 6.726H42.1159ZM49.0955 15V7.636H50.5235L50.6635 8.616H50.7615C50.9295 8.392 51.1255 8.196 51.3495 8.028C51.5829 7.85067 51.8442 7.71533 52.1335 7.622C52.4322 7.51933 52.7589 7.468 53.1135 7.468C53.5802 7.468 53.9909 7.552 54.3455 7.72C54.7095 7.888 54.9942 8.15867 55.1995 8.532C55.4049 8.90533 55.5075 9.40467 55.5075 10.03V15H53.7855V10.338C53.7855 10.0767 53.7529 9.862 53.6875 9.694C53.6315 9.51667 53.5429 9.37667 53.4215 9.274C53.3095 9.162 53.1695 9.08267 53.0015 9.036C52.8335 8.98933 52.6469 8.966 52.4415 8.966C52.1335 8.966 51.8535 9.04067 51.6015 9.19C51.3589 9.33933 51.1629 9.54467 51.0135 9.806C50.8735 10.0673 50.8035 10.3707 50.8035 10.716V15H49.0955ZM60.3373 15.168C59.572 15.168 58.9327 15.0327 58.4193 14.762C57.9153 14.482 57.5373 14.0573 57.2853 13.488C57.0333 12.9187 56.9073 12.1953 56.9073 11.318C56.9073 10.4313 57.0333 9.708 57.2853 9.148C57.5467 8.57867 57.9293 8.15867 58.4333 7.888C58.9467 7.608 59.5813 7.468 60.3373 7.468C60.832 7.468 61.2707 7.52867 61.6533 7.65C62.036 7.77133 62.3627 7.958 62.6333 8.21C62.9133 8.45267 63.1233 8.756 63.2633 9.12C63.4033 9.484 63.4733 9.90867 63.4733 10.394H61.7373C61.7373 10.0487 61.686 9.764 61.5833 9.54C61.4807 9.316 61.322 9.148 61.1073 9.036C60.902 8.91467 60.636 8.854 60.3093 8.854C59.9267 8.854 59.614 8.94267 59.3713 9.12C59.1287 9.29733 58.9467 9.56333 58.8253 9.918C58.7133 10.2633 58.6573 10.702 58.6573 11.234V11.416C58.6573 11.9387 58.7133 12.3773 58.8253 12.732C58.9467 13.0867 59.1333 13.3527 59.3853 13.53C59.6373 13.698 59.9687 13.782 60.3793 13.782C60.6967 13.782 60.958 13.726 61.1633 13.614C61.378 13.4927 61.5413 13.3153 61.6533 13.082C61.7653 12.8487 61.8213 12.5687 61.8213 12.242H63.4733C63.4733 12.6993 63.4033 13.11 63.2633 13.474C63.1233 13.838 62.918 14.146 62.6473 14.398C62.3767 14.65 62.0453 14.8413 61.6533 14.972C61.2707 15.1027 60.832 15.168 60.3373 15.168ZM64.9276 6.502V4.878H66.6356V6.502H64.9276ZM64.9276 15V7.636H66.6356V15H64.9276ZM70.3449 15.168C70.1396 15.168 69.9016 15.14 69.6309 15.084C69.3696 15.0373 69.1129 14.944 68.8609 14.804C68.6183 14.664 68.4176 14.4587 68.2589 14.188C68.1003 13.908 68.0209 13.544 68.0209 13.096C68.0209 12.592 68.1329 12.1767 68.3569 11.85C68.5809 11.514 68.8936 11.2527 69.2949 11.066C69.7056 10.87 70.1909 10.7347 70.7509 10.66C71.3203 10.576 71.9409 10.534 72.6129 10.534V9.932C72.6129 9.71733 72.5803 9.526 72.5149 9.358C72.4496 9.19 72.3283 9.05933 72.1509 8.966C71.9829 8.86333 71.7263 8.812 71.3809 8.812C71.0356 8.812 70.7649 8.854 70.5689 8.938C70.3729 9.022 70.2376 9.12467 70.1629 9.246C70.0883 9.36733 70.0509 9.49333 70.0509 9.624V9.82H68.3989C68.3896 9.77333 68.3849 9.72667 68.3849 9.68C68.3849 9.63333 68.3849 9.57733 68.3849 9.512C68.3849 9.092 68.5109 8.728 68.7629 8.42C69.0149 8.112 69.3649 7.87867 69.8129 7.72C70.2609 7.552 70.7789 7.468 71.3669 7.468C72.0389 7.468 72.5896 7.56133 73.0189 7.748C73.4576 7.93467 73.7843 8.20067 73.9989 8.546C74.2136 8.89133 74.3209 9.31133 74.3209 9.806V13.278C74.3209 13.4553 74.3723 13.5813 74.4749 13.656C74.5776 13.7307 74.6896 13.768 74.8109 13.768H75.2589V14.944C75.1656 14.9813 75.0303 15.0233 74.8529 15.07C74.6756 15.126 74.4563 15.154 74.1949 15.154C73.9523 15.154 73.7329 15.112 73.5369 15.028C73.3503 14.9533 73.1916 14.8413 73.0609 14.692C72.9303 14.5427 72.8369 14.3653 72.7809 14.16H72.6969C72.5383 14.356 72.3469 14.5333 72.1229 14.692C71.9083 14.8413 71.6516 14.958 71.3529 15.042C71.0636 15.126 70.7276 15.168 70.3449 15.168ZM70.8629 13.768C71.1429 13.768 71.3903 13.726 71.6049 13.642C71.8289 13.558 72.0109 13.4413 72.1509 13.292C72.3003 13.1427 72.4123 12.9607 72.4869 12.746C72.5709 12.5313 72.6129 12.298 72.6129 12.046V11.71C72.0996 11.71 71.6236 11.7427 71.1849 11.808C70.7556 11.8733 70.4103 11.9947 70.1489 12.172C69.8969 12.3493 69.7709 12.6013 69.7709 12.928C69.7709 13.096 69.8083 13.2453 69.8829 13.376C69.9669 13.4973 70.0883 13.5953 70.2469 13.67C70.4149 13.7353 70.6203 13.768 70.8629 13.768ZM78.197 15L81.935 5.396H84.231L87.983 15H86.009L85.239 12.956H80.843L80.073 15H78.197ZM81.417 11.416H84.651L83.685 8.812C83.6476 8.71867 83.601 8.602 83.545 8.462C83.4983 8.31267 83.447 8.154 83.391 7.986C83.335 7.80867 83.279 7.63133 83.223 7.454C83.167 7.27667 83.1156 7.118 83.069 6.978H82.999C82.943 7.16467 82.873 7.37933 82.789 7.622C82.7143 7.86467 82.6396 8.09333 82.565 8.308C82.4903 8.52267 82.4296 8.69067 82.383 8.812L81.417 11.416ZM88.9627 15V7.636H90.3907L90.5307 8.798H90.6287C90.7221 8.56467 90.8341 8.35 90.9647 8.154C91.1047 7.94867 91.2821 7.78533 91.4967 7.664C91.7114 7.53333 91.9727 7.468 92.2807 7.468C92.4301 7.468 92.5654 7.482 92.6867 7.51C92.8174 7.538 92.9154 7.566 92.9807 7.594V9.204H92.4627C92.1734 9.204 91.9167 9.246 91.6927 9.33C91.4687 9.40467 91.2774 9.526 91.1187 9.694C90.9694 9.862 90.8574 10.072 90.7827 10.324C90.7081 10.576 90.6707 10.87 90.6707 11.206V15H88.9627ZM95.981 15.168C95.5237 15.168 95.1643 15.0793 94.903 14.902C94.6417 14.7153 94.455 14.482 94.343 14.202C94.2403 13.9127 94.189 13.6187 94.189 13.32V9.036H93.307V7.636H94.231L94.539 5.578H95.897V7.636H97.171V9.036H95.897V13.152C95.897 13.348 95.9483 13.502 96.051 13.614C96.1537 13.7167 96.3077 13.768 96.513 13.768H97.171V14.944C97.0777 14.9813 96.961 15.014 96.821 15.042C96.6903 15.0793 96.5503 15.1073 96.401 15.126C96.2517 15.154 96.1117 15.168 95.981 15.168ZM98.4373 6.502V4.878H100.145V6.502H98.4373ZM98.4373 15V7.636H100.145V15H98.4373ZM102.315 15V9.036H101.251V7.636H102.315V6.698C102.315 6.37133 102.366 6.06333 102.469 5.774C102.581 5.47533 102.772 5.23267 103.043 5.046C103.313 4.85933 103.691 4.766 104.177 4.766C104.317 4.766 104.457 4.77533 104.597 4.794C104.746 4.81267 104.886 4.84067 105.017 4.878C105.147 4.906 105.259 4.93867 105.353 4.976V6.166H104.653C104.447 6.166 104.289 6.222 104.177 6.334C104.074 6.43667 104.023 6.59067 104.023 6.796V7.636H105.353V9.036H104.023V15H102.315ZM106.263 6.502V4.878H107.971V6.502H106.263ZM106.263 15V7.636H107.971V15H106.263ZM112.851 15.168C112.086 15.168 111.446 15.0327 110.933 14.762C110.429 14.482 110.051 14.0573 109.799 13.488C109.547 12.9187 109.421 12.1953 109.421 11.318C109.421 10.4313 109.547 9.708 109.799 9.148C110.06 8.57867 110.443 8.15867 110.947 7.888C111.46 7.608 112.095 7.468 112.851 7.468C113.346 7.468 113.784 7.52867 114.167 7.65C114.55 7.77133 114.876 7.958 115.147 8.21C115.427 8.45267 115.637 8.756 115.777 9.12C115.917 9.484 115.987 9.90867 115.987 10.394H114.251C114.251 10.0487 114.2 9.764 114.097 9.54C113.994 9.316 113.836 9.148 113.621 9.036C113.416 8.91467 113.15 8.854 112.823 8.854C112.44 8.854 112.128 8.94267 111.885 9.12C111.642 9.29733 111.46 9.56333 111.339 9.918C111.227 10.2633 111.171 10.702 111.171 11.234V11.416C111.171 11.9387 111.227 12.3773 111.339 12.732C111.46 13.0867 111.647 13.3527 111.899 13.53C112.151 13.698 112.482 13.782 112.893 13.782C113.21 13.782 113.472 13.726 113.677 13.614C113.892 13.4927 114.055 13.3153 114.167 13.082C114.279 12.8487 114.335 12.5687 114.335 12.242H115.987C115.987 12.6993 115.917 13.11 115.777 13.474C115.637 13.838 115.432 14.146 115.161 14.398C114.89 14.65 114.559 14.8413 114.167 14.972C113.784 15.1027 113.346 15.168 112.851 15.168ZM117.441 6.502V4.878H119.149V6.502H117.441ZM117.441 15V7.636H119.149V15H117.441ZM122.859 15.168C122.653 15.168 122.415 15.14 122.145 15.084C121.883 15.0373 121.627 14.944 121.375 14.804C121.132 14.664 120.931 14.4587 120.773 14.188C120.614 13.908 120.535 13.544 120.535 13.096C120.535 12.592 120.647 12.1767 120.871 11.85C121.095 11.514 121.407 11.2527 121.809 11.066C122.219 10.87 122.705 10.7347 123.265 10.66C123.834 10.576 124.455 10.534 125.127 10.534V9.932C125.127 9.71733 125.094 9.526 125.029 9.358C124.963 9.19 124.842 9.05933 124.665 8.966C124.497 8.86333 124.24 8.812 123.895 8.812C123.549 8.812 123.279 8.854 123.083 8.938C122.887 9.022 122.751 9.12467 122.677 9.246C122.602 9.36733 122.565 9.49333 122.565 9.624V9.82H120.913C120.903 9.77333 120.899 9.72667 120.899 9.68C120.899 9.63333 120.899 9.57733 120.899 9.512C120.899 9.092 121.025 8.728 121.277 8.42C121.529 8.112 121.879 7.87867 122.327 7.72C122.775 7.552 123.293 7.468 123.881 7.468C124.553 7.468 125.103 7.56133 125.533 7.748C125.971 7.93467 126.298 8.20067 126.513 8.546C126.727 8.89133 126.835 9.31133 126.835 9.806V13.278C126.835 13.4553 126.886 13.5813 126.989 13.656C127.091 13.7307 127.203 13.768 127.325 13.768H127.773V14.944C127.679 14.9813 127.544 15.0233 127.367 15.07C127.189 15.126 126.97 15.154 126.709 15.154C126.466 15.154 126.247 15.112 126.051 15.028C125.864 14.9533 125.705 14.8413 125.575 14.692C125.444 14.5427 125.351 14.3653 125.295 14.16H125.211C125.052 14.356 124.861 14.5333 124.637 14.692C124.422 14.8413 124.165 14.958 123.867 15.042C123.577 15.126 123.241 15.168 122.859 15.168ZM123.377 13.768C123.657 13.768 123.904 13.726 124.119 13.642C124.343 13.558 124.525 13.4413 124.665 13.292C124.814 13.1427 124.926 12.9607 125.001 12.746C125.085 12.5313 125.127 12.298 125.127 12.046V11.71C124.613 11.71 124.137 11.7427 123.699 11.808C123.269 11.8733 122.924 11.9947 122.663 12.172C122.411 12.3493 122.285 12.6013 122.285 12.928C122.285 13.096 122.322 13.2453 122.397 13.376C122.481 13.4973 122.602 13.5953 122.761 13.67C122.929 13.7353 123.134 13.768 123.377 13.768ZM128.748 15V4.878H130.456V15H128.748Z" fill="#CBD5E1"/>
<path d="M149.531 10.5306L145.031 15.0306C144.89 15.1715 144.699 15.2507 144.499 15.2507C144.3 15.2507 144.109 15.1715 143.968 15.0306C143.827 14.8897 143.748 14.6986 143.748 14.4994C143.748 14.3001 143.827 14.109 143.968 13.9681L147.188 10.75H138C137.801 10.75 137.61 10.671 137.47 10.5303C137.329 10.3897 137.25 10.1989 137.25 9.99999C137.25 9.80108 137.329 9.61031 137.47 9.46966C137.61 9.329 137.801 9.24999 138 9.24999H147.188L143.969 6.02999C143.828 5.88909 143.749 5.69799 143.749 5.49874C143.749 5.29948 143.828 5.10838 143.969 4.96749C144.11 4.82659 144.301 4.74744 144.501 4.74744C144.7 4.74744 144.891 4.82659 145.032 4.96749L149.532 9.46749C149.602 9.53726 149.657 9.62016 149.695 9.71142C149.733 9.80269 149.752 9.90052 149.752 9.99931C149.752 10.0981 149.732 10.1959 149.694 10.2871C149.656 10.3782 149.601 10.461 149.531 10.5306Z" fill="#CBD5E1"/>
</svg>
